{"asset":{"version":"2.0","generator":"babylon.js glTF exporter for Autodesk MAYA 2023.3.1 v20240312.5"},"scene":0,"scenes":[{"nodes":[0]}],"nodes":[{"mesh":0,"rotation":[-0.707106769,0.0,0.0,0.707106769],"scale":[9.99775,9.99775,9.99775],"name":"Box001","extras":{"MaxHandle":2}}],"meshes":[{"primitives":[{"attributes":{"POSITION":1,"TANGENT":2,"NORMAL":3,"TEXCOORD_0":4},"indices":0,"material":0}],"name":"Box001"}],"accessors":[{"bufferView":0,"componentType":5123,"count":900,"type":"SCALAR","name":"accessorIndices"},{"bufferView":1,"componentType":5126,"count":186,"max":[0.4811252,0.4811252,0.481125176],"min":[-0.4811252,-0.4811252,-0.4811252],"type":"VEC3","name":"accessorPositions"},{"bufferView":2,"componentType":5126,"count":186,"type":"VEC4","name":"accessorTangents"},{"bufferView":1,"byteOffset":2232,"componentType":5126,"count":186,"type":"VEC3","name":"accessorNormals"},{"bufferView":3,"componentType":5126,"count":186,"type":"VEC2","name":"accessorUVs"}],"bufferViews":[{"buffer":0,"byteLength":1800,"name":"bufferViewScalar"},{"buffer":0,"byteOffset":1800,"byteLength":4464,"byteStride":12,"name":"bufferViewFloatVec3"},{"buffer":0,"byteOffset":6264,"byteLength":2976,"byteStride":16,"name":"bufferViewFloatVec4"},{"buffer":0,"byteOffset":9240,"byteLength":1488,"byteStride":8,"name":"bufferViewFloatVec2"}],"buffers":[{"uri":"Milostan_Skybox_EXP.bin","byteLength":10728}],"materials":[{"pbrMetallicRoughness":{"baseColorTexture":{"index":0},"metallicFactor":0.0,"roughnessFactor":0.450053632},"name":"lambert2"}],"textures":[{"sampler":0,"source":0,"name":"skyboxtesdt.png"}],"images":[{"uri":"skyboxtesdt.png"}],"samplers":[{"magFilter":9729,"minFilter":9987}]}