{
  "accessors": [
    {
      "bufferView": 0,
      "componentType": 5126,
      "count": 1590,
      "max": [
        25.0,
        -21.875,
        100.0
      ],
      "min": [
        -25.0,
        -25.0,
        0.0
      ],
      "type": "VEC3"
    },
    {
      "bufferView": 0,
      "byteOffset": 12,
      "componentType": 5126,
      "count": 1590,
      "type": "VEC3"
    },
    {
      "bufferView": 0,
      "byteOffset": 24,
      "componentType": 5126,
      "count": 1590,
      "type": "VEC2"
    },
    {
      "bufferView": 1,
      "componentType": 5125,
      "count": 7392,
      "type": "SCALAR"
    }
  ],
  "asset": {
    "version": "2.0"
  },
  "bufferViews": [
    {
      "buffer": 0,
      "byteLength": 50880,
      "byteStride": 32,
      "target": 34962
    },
    {
      "buffer": 0,
      "byteLength": 29568,
      "byteOffset": 50880,
      "target": 34963
    }
  ],
  "buffers": [
    {
      "byteLength": 80448,
      "uri": "Door.bin"
    }
  ],
  "images": [
    {
      "uri": "Material__35basecolortexture.png"
    }
  ],
  "materials": [
    {
      "name": "Material__35",
      "pbrMetallicRoughness": {
        "baseColorFactor": [
          0.5,
          0.5,
          0.5,
          1.0
        ],
        "baseColorTexture": {
          "index": 0
        },
        "metallicFactor": 0.0,
        "roughnessFactor": 0.0
      }
    }
  ],
  "meshes": [
    {
      "name": "Box021",
      "primitives": [
        {
          "attributes": {
            "NORMAL": 1,
            "POSITION": 0,
            "TEXCOORD_0": 2
          },
          "indices": 3,
          "material": 0,
          "mode": 4
        }
      ]
    }
  ],
  "nodes": [
    {
      "matrix": [
        0.01,
        0.0,
        0.0,
        0.0,
        0.0,
        0.01,
        0.0,
        0.0,
        0.0,
        0.0,
        0.01,
        0.0,
        0.0,
        0.0,
        0.0,
        1.0
      ],
      "mesh": 0,
      "name": "Box021"
    },
    {
      "children": [
        0
      ],
      "matrix": [
        0.9999999999999998,
        0.0,
        0.0,
        0.0,
        0.0,
        0.0,
        -0.9999999999999998,
        0.0,
        0.0,
        0.4999999999999999,
        0.0,
        0.0,
        0.0,
        0.25,
        -0.234375,
        1.0
      ]
    }
  ],
  "samplers": [
    {
      "magFilter": 9729,
      "minFilter": 9729,
      "wrapS": 10497,
      "wrapT": 10497
    }
  ],
  "scenes": [
    {
      "nodes": [
        1
      ]
    }
  ],
  "textures": [
    {
      "name": "texture_source0_sampler0",
      "sampler": 0,
      "source": 0
    }
  ]
}
