{
  "accessors": [
    {
      "bufferView": 0,
      "componentType": 5126,
      "count": 684,
      "max": [
        25.000003814697266,
        25.000003814697266,
        50.0
      ],
      "min": [
        -25.000001907348633,
        -25.000001907348633,
        -1.9073486328125e-06
      ],
      "type": "VEC3"
    },
    {
      "bufferView": 0,
      "byteOffset": 12,
      "componentType": 5126,
      "count": 684,
      "type": "VEC3"
    },
    {
      "bufferView": 0,
      "byteOffset": 24,
      "componentType": 5126,
      "count": 684,
      "type": "VEC2"
    },
    {
      "bufferView": 1,
      "componentType": 5125,
      "count": 1260,
      "type": "SCALAR"
    }
  ],
  "asset": {
    "version": "2.0"
  },
  "bufferViews": [
    {
      "buffer": 0,
      "byteLength": 21888,
      "byteStride": 32,
      "target": 34962
    },
    {
      "buffer": 0,
      "byteLength": 5040,
      "byteOffset": 21888,
      "target": 34963
    }
  ],
  "buffers": [
    {
      "byteLength": 26928,
      "uri": "glass_Block.bin"
    }
  ],
  "images": [
    {
      "uri": "M_07___Defaultbasecolortexture.png"
    }
  ],
  "materials": [
    {
      "name": "07___Default",
      "pbrMetallicRoughness": {
        "baseColorTexture": {
          "index": 0
        },
        "metallicFactor": 0.0,
        "roughnessFactor": 0.0
      }
    }
  ],
  "meshes": [
    {
      "name": "Box016",
      "primitives": [
        {
          "attributes": {
            "NORMAL": 1,
            "POSITION": 0,
            "TEXCOORD_0": 2
          },
          "indices": 3,
          "material": 0,
          "mode": 4
        }
      ]
    }
  ],
  "nodes": [
    {
      "matrix": [
        0.01,
        0.0,
        0.0,
        0.0,
        0.0,
        0.01,
        0.0,
        0.0,
        0.0,
        0.0,
        0.01,
        0.0,
        0.0,
        0.0,
        0.0,
        1.0
      ],
      "mesh": 0,
      "name": "Box016"
    },
    {
      "children": [
        0
      ],
      "matrix": [
        1.0,
        0.0,
        0.0,
        0.0,
        0.0,
        0.0,
        -1.0,
        0.0,
        0.0,
        1.0,
        0.0,
        0.0,
        0.11472896575927735,
        0.0,
        -0.08399816513061524,
        1.0
      ]
    }
  ],
  "samplers": [
    {
      "magFilter": 9729,
      "minFilter": 9729,
      "wrapS": 10497,
      "wrapT": 10497
    }
  ],
  "scenes": [
    {
      "nodes": [
        1
      ]
    }
  ],
  "textures": [
    {
      "name": "texture_source0_sampler0",
      "sampler": 0,
      "source": 0
    }
  ]
}
